<svg width="24" height="24" viewBox="0 0 24 24" fill="none" xmlns="http://www.w3.org/2000/svg">
<path d="M11.495 2.71381C11.7016 2.29527 12.2984 2.29527 12.505 2.71381L15.179 8.13194C15.261 8.29814 15.4196 8.41334 15.603 8.43999L21.5823 9.30883C22.0441 9.37595 22.2286 9.94357 21.8944 10.2694L17.5677 14.4868C17.435 14.6162 17.3744 14.8026 17.4058 14.9852L18.4271 20.9403C18.506 21.4004 18.0232 21.7512 17.6101 21.534L12.2621 18.7224C12.098 18.6361 11.902 18.6361 11.738 18.7224L6.38995 21.534C5.97683 21.7512 5.49398 21.4004 5.57288 20.9403L6.59426 14.9852C6.62559 14.8026 6.56502 14.6162 6.4323 14.4868L2.10567 10.2694C1.77144 9.94357 1.95588 9.37595 2.41777 9.30883L8.39702 8.43999C8.58044 8.41334 8.739 8.29814 8.82103 8.13194L11.495 2.71381Z" stroke="#44DD8A" stroke-width="2" stroke-linejoin="round"/>
</svg>
